<svg id="Google_AI_Logo_Vector" data-name="Google AI Logo Vector" xmlns="http://www.w3.org/2000/svg" width="353.143" height="80" viewBox="0 0 353.143 80">
  <defs>
    <style>
      .cls-1 {
        fill: #4184f4;
      }

      .cls-1, .cls-2, .cls-3, .cls-4, .cls-5 {
        fill-rule: evenodd;
      }

      .cls-2 {
        fill: #33a852;
      }

      .cls-3 {
        fill: #fbbb03;
      }

      .cls-4 {
        fill: #e94234;
      }

      .cls-5 {
        fill: #5e6266;
      }
    </style>
  </defs>
  <path id="패스_9" data-name="패스 9" class="cls-1" d="M291.146,456.08a6.692,6.692,0,1,1-6.687,6.692A6.692,6.692,0,0,1,291.146,456.08Z" transform="translate(-227.193 -440.393)"/>
  <path id="패스_10" data-name="패스 10" class="cls-1" d="M291.146,519.79a6.692,6.692,0,1,1-6.687,6.692A6.692,6.692,0,0,1,291.146,519.79Z" transform="translate(-227.193 -468.839)"/>
  <path id="패스_11" data-name="패스 11" class="cls-1" d="M291.147,487.927a6.684,6.684,0,1,1,0-.017Z" transform="translate(-227.193 -454.605)"/>
  <path id="패스_12" data-name="패스 12" class="cls-2" d="M264.774,441.466a5.831,5.831,0,1,1,0-.006Z" transform="translate(-215.799 -433.866)"/>
  <path id="패스_13" data-name="패스 13" class="cls-2" d="M264.714,537.5a5.84,5.84,0,1,1-5.834,5.839A5.84,5.84,0,0,1,264.714,537.5Z" transform="translate(-215.772 -476.746)"/>
  <path id="패스_14" data-name="패스 14" class="cls-2" d="M264.714,505.67a5.839,5.839,0,1,1-5.834,5.839A5.839,5.839,0,0,1,264.714,505.67Z" transform="translate(-215.772 -462.534)"/>
  <path id="패스_15" data-name="패스 15" class="cls-2" d="M264.714,473.24a5.84,5.84,0,1,1-5.834,5.834,5.84,5.84,0,0,1,5.834-5.834Z" transform="translate(-215.772 -448.055)"/>
  <path id="패스_16" data-name="패스 16" class="cls-3" d="M238.345,427.74a4.915,4.915,0,1,1-4.915,4.915A4.915,4.915,0,0,1,238.345,427.74Z" transform="translate(-204.409 -427.74)"/>
  <path id="패스_17" data-name="패스 17" class="cls-3" d="M238.345,554.51a4.91,4.91,0,1,1-3.475,1.436A4.916,4.916,0,0,1,238.345,554.51Z" transform="translate(-204.409 -484.341)"/>
  <path id="패스_18" data-name="패스 18" class="cls-3" d="M238.345,522.72a4.91,4.91,0,1,1-3.475,1.436A4.91,4.91,0,0,1,238.345,522.72Z" transform="translate(-204.409 -470.147)"/>
  <path id="패스_19" data-name="패스 19" class="cls-3" d="M238.345,491.09a4.91,4.91,0,1,1-3.477,1.438A4.915,4.915,0,0,1,238.345,491.09Z" transform="translate(-204.409 -456.025)"/>
  <path id="패스_20" data-name="패스 20" class="cls-3" d="M238.345,459.4a4.91,4.91,0,1,1-3.475,1.436A4.909,4.909,0,0,1,238.345,459.4Z" transform="translate(-204.409 -441.876)"/>
  <path id="패스_21" data-name="패스 21" class="cls-4" d="M211.423,444.67a4.268,4.268,0,1,1-3.023,1.25A4.273,4.273,0,0,1,211.423,444.67Z" transform="translate(-192.676 -435.299)"/>
  <path id="패스_22" data-name="패스 22" class="cls-4" d="M211.423,539.9a4.273,4.273,0,1,1-4.273,4.273A4.273,4.273,0,0,1,211.423,539.9Z" transform="translate(-192.676 -477.818)"/>
  <path id="패스_23" data-name="패스 23" class="cls-4" d="M211.423,508.46a4.273,4.273,0,1,1-4.273,4.273A4.273,4.273,0,0,1,211.423,508.46Z" transform="translate(-192.676 -463.78)"/>
  <path id="패스_24" data-name="패스 24" class="cls-4" d="M211.423,476.1a4.268,4.268,0,1,1-3.021,1.248A4.273,4.273,0,0,1,211.423,476.1Z" transform="translate(-192.676 -449.332)"/>
  <path id="패스_25" data-name="패스 25" class="cls-1" d="M184.559,461.63A3.559,3.559,0,1,1,181,465.189,3.559,3.559,0,0,1,184.559,461.63Z" transform="translate(-181 -442.871)"/>
  <path id="패스_26" data-name="패스 26" class="cls-1" d="M184.559,525.42A3.559,3.559,0,1,1,181,528.979,3.559,3.559,0,0,1,184.559,525.42Z" transform="translate(-181 -471.352)"/>
  <path id="패스_27" data-name="패스 27" class="cls-1" d="M184.559,493.57A3.559,3.559,0,1,1,181,497.129,3.559,3.559,0,0,1,184.559,493.57Z" transform="translate(-181 -457.132)"/>
  <path id="패스_28" data-name="패스 28" class="cls-5" d="M628.576,459h6.836q-.067,23.181,0,46.368c-2.28-.028-4.561,0-6.842,0q.05-23.176,0-46.346Z" transform="translate(-380.833 -441.697)"/>
  <path id="패스_29" data-name="패스 29" class="cls-5" d="M578.872,493.706h0a8.65,8.65,0,0,0-4.727,3.011,10.411,10.411,0,0,0,.343,13.235,8.275,8.275,0,0,0,13.888-2.319,10.884,10.884,0,0,0-1.9-11.763A7.993,7.993,0,0,0,578.872,493.706Zm-6.216-4.218a12.436,12.436,0,0,1,16.135,1.433c.033-.885.033-1.771.033-2.662h6.56v28.058c0,3.875-.659,7.893-2.9,11.12a13.239,13.239,0,0,1-8.5,5.4,16.606,16.606,0,0,1-9.692-.852,15.6,15.6,0,0,1-7.993-8.11c1.981-.874,4-1.661,5.983-2.529a9.328,9.328,0,0,0,5.883,5.364c3.045.708,6.692.044,8.712-2.524s2.049-5.9,1.9-8.956a11.761,11.761,0,0,1-5.535,3.321,14.37,14.37,0,0,1-13.4-4,16.086,16.086,0,0,1,2.8-25.085Z" transform="translate(-352.484 -454.323)"/>
  <path id="패스_30" data-name="패스 30" class="cls-5" d="M453.676,493.681h0a8.858,8.858,0,0,0-5.452,3.725,10.416,10.416,0,0,0,.946,12.6,8.74,8.74,0,0,0,8.093,2.579,8.855,8.855,0,0,0,4.644-2.574,10.333,10.333,0,0,0-.282-14.087,8.783,8.783,0,0,0-7.949-2.242Zm.194-6.315a15.842,15.842,0,0,1,14.774,24.914,15.745,15.745,0,0,1-11.4,6.581,15.925,15.925,0,0,1-13.14-26.9A15.951,15.951,0,0,1,453.869,487.366Z" transform="translate(-296.477 -454.321)"/>
  <path id="패스_31" data-name="패스 31" class="cls-5" d="M655.745,496.865h0a9.224,9.224,0,0,0-1.721,5.812q7.141-2.939,14.259-5.923a6.055,6.055,0,0,0-5.092-3.321,8.374,8.374,0,0,0-7.444,3.448Zm-4.362-4.982a14.634,14.634,0,0,1,14.552-4.079,14.477,14.477,0,0,1,8.353,6.775,36.748,36.748,0,0,1,2.07,4.494c-7.025,3.017-14.12,5.873-21.177,8.812a8.3,8.3,0,0,0,4.323,4.257,9.124,9.124,0,0,0,8.857-1.223,13.065,13.065,0,0,0,2.369-2.541c1.771,1.2,3.559,2.38,5.336,3.576a15.93,15.93,0,0,1-24.947,1.788c-5.352-5.984-5.192-16.008.282-21.858Z" transform="translate(-389.15 -454.322)"/>
  <path id="패스_32" data-name="패스 32" class="cls-5" d="M516.353,493.69h0a8.739,8.739,0,0,0-4.494,2.574,10.385,10.385,0,0,0,.05,13.777,8.718,8.718,0,0,0,12.83-.177,10.34,10.34,0,0,0-.432-13.938,8.751,8.751,0,0,0-7.954-2.214Zm-.4-6.221a16.051,16.051,0,0,1,13.838,4.644,16.235,16.235,0,0,1,1.34,20.364,15.649,15.649,0,0,1-11.215,6.365,16.144,16.144,0,0,1-11.552-3.243,15.8,15.8,0,0,1,7.589-28.129Z" transform="translate(-324.438 -454.329)"/>
  <path id="패스_33" data-name="패스 33" class="cls-5" d="M356.274,462.785a25.057,25.057,0,0,1,18.266-7.124,23.358,23.358,0,0,1,16.146,6.747q-2.375,2.314-4.688,4.688a17.779,17.779,0,0,0-25.036.736,18.183,18.183,0,0,0,3.537,27.676,18.618,18.618,0,0,0,13.838,2.148,16,16,0,0,0,8.491-5.054,14.859,14.859,0,0,0,3.128-7.893H373.865v-6.7h22.589a24.779,24.779,0,0,1-2.851,16.605,21.807,21.807,0,0,1-13.65,9.615,26.493,26.493,0,0,1-14.674-.858,25.272,25.272,0,0,1-14.07-12.653,23.954,23.954,0,0,1-1.948-15.122,24.466,24.466,0,0,1,7.013-12.786Z" transform="translate(-255.921 -440.201)"/>
  <path id="패스_34" data-name="패스 34" class="cls-5" d="M627.78,34.62h5.657V79.4H627.78V34.62Z" transform="translate(-280.294 -15.457)"/>
  <path id="패스_35" data-name="패스 35" class="cls-5" d="M739.763,489.51h14.392l-7.2-19.5Zm10.645-27.15,16.605,44.785h-6.366l-4.428-11.989H737.683l-4.429,11.989H726.9l16.605-44.785Z" transform="translate(-424.735 -443.198)"/>
</svg>
