<?xml version="1.0" encoding="UTF-8"?>
<svg id="_레이어_2" data-name="레이어 2" xmlns="http://www.w3.org/2000/svg" viewBox="0 0 1004.07 130.84">
  <defs>
    <style>
      .cls-1 {
        fill: #fff;
        stroke-width: 0px;
      }
    </style>
  </defs>
  <g id="Layer_1" data-name="Layer 1">
    <g>
      <path class="cls-1" d="m0,2.28h36.71v125.57H0V2.28Z"/>
      <path class="cls-1" d="m171.59,2.28h47.77l19.32,70.25h.35L258.35,2.28h48.12v125.57h-33.19V49.18h-.35l-20.9,78.68h-26.87l-20.9-78.68h-.35v78.68h-32.32V2.28Z"/>
      <g>
        <path class="cls-1" d="m576.24,65.51c0-37.58,25.82-65.51,63.58-65.51,13.7,0,25.99,3.51,35.13,9.83,13,8.96,20.55,23.01,22.13,38.99h-36.71c-.88-9.83-9.13-18.62-21.08-18.62-17.39,0-25.82,14.75-25.82,35.3s9.84,35.3,26.17,35.3c12.82,0,20.55-8.43,21.78-19.67h37.06c-1.05,13.88-7.38,26.17-16.33,34.77-10.71,10.36-24.06,14.93-42.33,14.93-38.29,0-63.58-27.75-63.58-65.33Z"/>
        <path class="cls-1" d="m736.54,48.47h.53c6.67-7.73,14.75-13,27.22-13,20.72,0,31.44,13.88,31.44,34.42v57.96h-33.19v-49.88c0-9.31-3.86-15.46-12.47-15.46s-13.52,7.38-13.52,17.04v48.3h-33.19V2.28h33.19v46.19Z"/>
        <path class="cls-1" d="m859.44,117.5h-.35c-5.8,7.9-14.93,12.65-28.63,12.65-17.21,0-29.86-9.31-29.86-26.87,0-19.85,15.28-25.64,32.49-27.57,18.97-2.11,24.06-4.39,24.06-10.01,0-4.92-2.28-8.61-9.48-8.61s-10.89,4.21-11.77,10.71h-31.44c.7-17.74,14.4-32.32,42.5-32.32,13.7,0,25.12,2.81,32.49,8.25,7.38,5.79,10.71,12.64,10.71,24.59v33.9c0,5.79,2.28,6.32,5.62,5.79h.53v18.79c-2.46,1.05-8.43,2.63-14.58,2.63-13.35,0-20.2-3.69-22.3-11.94Zm-1.41-22.13v-7.9c-3.16,1.58-7.2,2.99-12.82,4.21-9.66,2.11-12.65,4.92-12.65,10.19,0,5.97,4.92,8.61,10.36,8.61,7.73,0,15.1-4.39,15.1-15.1Z"/>
        <path class="cls-1" d="m901.2,2.28h33.19v25.11h-33.19V2.28Zm0,36h33.19v89.57h-33.19V38.29Z"/>
        <path class="cls-1" d="m970.88,51.81h.53c7.2-11.24,15.81-15.46,27.22-15.46,2.63,0,4.39.35,5.44.88v28.28h-.7c-19.5-3.34-30.91,5.44-30.91,25.64v36.71h-33.19V38.29h31.61v13.52Z"/>
      </g>
    </g>
  </g>
</svg>
